<?xml version="1.0" encoding="utf-8"?>
<!-- Generator: Adobe Illustrator 27.5.0, SVG Export Plug-In . SVG Version: 6.00 Build 0)  -->
<svg version="1.1" xmlns="http://www.w3.org/2000/svg" xmlns:xlink="http://www.w3.org/1999/xlink" x="0px" y="0px"
	 viewBox="0 0 750 500" style="enable-background:new 0 0 750 500;" xml:space="preserve">
<g id="BACKGROUND">
	<rect style="fill:#F4F6DA;" width="750" height="500"/>
</g>
<g id="OBJECTS">
	<g>
		<defs>
			<rect id="SVGID_1_" width="750" height="500"/>
		</defs>
		<clipPath id="SVGID_00000132089674407096357720000014702759102878216083_">
			<use xlink:href="#SVGID_1_"  style="overflow:visible;"/>
		</clipPath>
		<g style="clip-path:url(#SVGID_00000132089674407096357720000014702759102878216083_);">
			<g>
				
					<ellipse transform="matrix(0.1504 -0.9886 0.9886 0.1504 -30.6456 393.4399)" style="fill:#D9DF40;" cx="213.582" cy="214.55" rx="30.339" ry="30.339"/>
				
					<ellipse transform="matrix(0.6277 -0.7785 0.7785 0.6277 -87.4993 246.1546)" style="fill:none;stroke:#F4F6DA;stroke-width:1.9082;stroke-linecap:round;stroke-linejoin:round;stroke-miterlimit:10;" cx="213.582" cy="214.55" rx="24.533" ry="24.533"/>
				
					<ellipse transform="matrix(0.6244 -0.7811 0.7811 0.6244 -87.3657 247.4029)" style="fill:none;stroke:#F4F6DA;stroke-width:1.9082;stroke-linecap:round;stroke-linejoin:round;stroke-miterlimit:10;" cx="213.582" cy="214.55" rx="15.923" ry="15.923"/>
				
					<circle style="fill:none;stroke:#F4F6DA;stroke-width:1.9282;stroke-linecap:round;stroke-linejoin:round;stroke-miterlimit:10;" cx="213.582" cy="214.231" r="7.327"/>
			</g>
			<g>
				
					<line style="fill:none;stroke:#203827;stroke-width:2;stroke-linecap:round;stroke-linejoin:round;stroke-miterlimit:10;" x1="200.506" y1="449.292" x2="200.506" y2="485.124"/>
				
					<line style="fill:none;stroke:#203827;stroke-width:2;stroke-linecap:round;stroke-linejoin:round;stroke-miterlimit:10;" x1="182.582" y1="467.208" x2="218.429" y2="467.208"/>
				
					<line style="fill:none;stroke:#203827;stroke-width:2;stroke-linecap:round;stroke-linejoin:round;stroke-miterlimit:10;" x1="187.832" y1="454.539" x2="213.18" y2="479.877"/>
				
					<line style="fill:none;stroke:#203827;stroke-width:2;stroke-linecap:round;stroke-linejoin:round;stroke-miterlimit:10;" x1="187.832" y1="479.877" x2="213.18" y2="454.539"/>
			</g>
			<rect style="fill:#203827;" width="165.679" height="166.667"/>
			<rect y="166.667" style="fill:#F4F6DA;" width="165.679" height="166.667"/>
			<rect x="165.679" style="fill:#F4F6DA;" width="165.679" height="166.667"/>
			<rect x="417.69" y="333.333" style="fill:#F4F6DA;" width="165.679" height="166.667"/>
			<rect y="333.333" style="fill:#D9DF40;" width="165.679" height="166.667"/>
			<g>
				
					<line style="fill:none;stroke:#D9DF40;stroke-width:2.1021;stroke-linecap:round;stroke-linejoin:round;stroke-miterlimit:10;" x1="143.312" y1="22.209" x2="14.032" y2="150.438"/>
				<path style="fill:#E38821;" d="M165.679,81.068v19.97h-41.714c-5.551,0-10.082-4.488-10.082-9.985
					c0-2.754,1.136-5.245,2.961-7.053c1.825-1.808,4.34-2.933,7.121-2.933H165.679z"/>
				<path style="fill:#60A84C;" d="M165.679,144.742v9.901h-83.59c-2.746,0-4.993-2.228-4.993-4.951c0-1.356,0.562-2.596,1.463-3.5
					c0.912-0.894,2.163-1.45,3.53-1.45H165.679z"/>
				<path style="fill:#60A84C;" d="M76.57,62.149L76.57,62.149c-4.336,0-7.883-3.547-7.883-7.883V26.939
					c0-4.336,3.547-7.883,7.883-7.883h0c4.336,0,7.883,3.547,7.883,7.883v27.328C84.453,58.602,80.905,62.149,76.57,62.149z"/>
				
					<line style="fill:none;stroke:#D9DF40;stroke-width:2.1021;stroke-miterlimit:10;" x1="48.717" y1="116.804" x2="165.679" y2="116.804"/>
				
					<line style="fill:none;stroke:#D9DF40;stroke-width:2.2047;stroke-miterlimit:10;" x1="121.24" y1="44.281" x2="165.679" y2="44.281"/>
			</g>
			<rect x="583.296" y="333.296" style="fill:#F4F6DA;" width="166.704" height="166.704"/>
			<rect x="583.296" y="166.648" style="fill:#203827;" width="166.704" height="166.704"/>
			<rect x="583.296" y="-0.056" style="fill:#E38821;" width="166.704" height="166.704"/>
			<rect x="583.369" y="345.938" style="fill:#D9DF40;" width="166.559" height="11.104"/>
			<path style="fill:#203827;" d="M750,397.49V500H595.933c-0.339-1.47-0.518-3.003-0.518-4.569c0-9.92,8.894-21.099,19.258-21.099
				c0.032,0,55.744,0,55.744,0c5.024,0,9.603-2.062,12.924-5.383c3.363-3.363,5.436-8.017,5.383-13.125
				c-0.106-10.132-8.725-18.126-18.856-18.126c-10.734,0-21.469-0.074-32.203,0c-13.146,0.095-26.069-5.193-25.043-20.845
				c0.708-10.999,10.227-19.364,21.247-19.364H750z"/>
			<rect x="468.818" y="372.905" style="fill:#E38821;" width="281.109" height="11.104"/>
			<g>
				<path style="fill:#60A84C;" d="M128.625,514.421c-0.789,0.126-1.592,0.21-2.416,0.21c-8.438,0-15.302-6.864-15.302-15.302
					v-107.52c0-8.438,6.865-15.302,15.302-15.302c0.824,0,1.627,0.084,2.416,0.21v-3.269c-0.792-0.104-1.597-0.163-2.416-0.163
					c-10.214,0-18.524,8.31-18.524,18.524v107.52c0,10.214,8.31,18.524,18.524,18.524c0.819,0,1.625-0.059,2.416-0.163V514.421z"/>
			</g>
			<g>
				<path style="fill:#E38821;" d="M190.238,304.004c0,0-67.282,6.32-67.325,6.324c-5.213,0.488-8.414-0.243-15.451,2.834
					c-4.564,1.996-8.452,5.909-11.469,9.838c-4.345,5.659-6.721,12.69-6.668,19.827c0.132,17.758,14.769,32.178,32.527,32.046
					c1.382-0.01,2.741-0.118,4.077-0.299l0.092,0.424c-0.498,2.283-0.761,4.649-0.743,7.078
					c0.132,17.758,14.769,32.178,32.527,32.046c16.268-0.121,29.956-11.001,31.771-28.124c0.008-0.075,0.012-0.152,0.013-0.227
					l0.208-14.727L190.238,304.004z"/>
				<g>
					<g>
						
							<polyline style="fill:none;stroke:#203827;stroke-width:1.3403;stroke-linecap:round;stroke-linejoin:round;stroke-miterlimit:10;" points="
							140.821,310.933 123.309,376.392 188.742,305.72 						"/>
						
							<line style="fill:none;stroke:#203827;stroke-width:1.3403;stroke-linecap:round;stroke-linejoin:round;stroke-miterlimit:10;" x1="186.606" y1="352.203" x2="123.309" y2="376.392"/>
					</g>
					<path style="fill:#FFFFFF;" d="M171.527,329.004l-26.751,29.677c-1.505,1.669-4.102,1.804-5.771,0.299l0,0
						c-1.669-1.505-1.804-4.102-0.299-5.771l26.751-29.677c1.505-1.669,4.102-1.804,5.771-0.299l0,0
						C172.897,324.738,173.031,327.335,171.527,329.004z"/>
				</g>
			</g>
			<g>
				<path style="fill:#D9DF40;" d="M643.553,23.398L643.553,23.398c-11.779-11.858-31.119-11.923-42.977-0.144l-17.632,17.514
					l23.209-0.056c2.464-0.006,4.462,2.006,4.44,4.47c-0.023,2.464-2.057,4.486-4.522,4.492l-32.17,0.078l-40.498,40.227
					c-11.859,11.779-11.923,31.119-0.145,42.977h0c11.779,11.859,31.119,11.924,42.977,0.145l25.762-25.589l9.036-32.628
					c0.45-1.624,2.143-2.601,3.762-2.17c1.619,0.431,2.576,2.113,2.126,3.737l-6.202,22.397l32.689-32.471
					C655.267,54.596,655.332,35.257,643.553,23.398z"/>
				<g>
					
						<line style="fill:none;stroke:#F4F6DA;stroke-width:1.7421;stroke-miterlimit:10;" x1="570.124" y1="139.888" x2="585.475" y2="79.888"/>
					
						<line style="fill:none;stroke:#F4F6DA;stroke-width:1.7421;stroke-miterlimit:10;" x1="585.703" y1="124.203" x2="601.054" y2="64.204"/>
					
						<line style="fill:none;stroke:#F4F6DA;stroke-width:1.7421;stroke-miterlimit:10;" x1="526.058" y1="94.155" x2="586.159" y2="79.208"/>
					
						<line style="fill:none;stroke:#F4F6DA;stroke-width:1.7421;stroke-miterlimit:10;" x1="541.959" y1="78.361" x2="602.06" y2="63.414"/>
					
						<line style="fill:none;stroke:#203827;stroke-width:2.307;stroke-linecap:round;stroke-linejoin:round;stroke-miterlimit:10;" x1="667.019" y1="-0.719" x2="549.316" y2="116.196"/>
				</g>
			</g>
			<path style="fill:#D9DF40;" d="M442.527,414.316c-0.198,19.984-13.726,38.125-34.003,43.314
				c-24.191,6.19-48.814-8.398-55.005-32.59s8.398-48.814,32.59-55.005c19.293-4.937,38.869,3.35,49.131,19.183
				c-13.771,8.594-37.924,24.614-37.924,24.614L442.527,414.316z"/>
			<g>
				<g>
					
						<path style="fill:none;stroke:#203827;stroke-width:1.0764;stroke-linecap:round;stroke-linejoin:round;stroke-miterlimit:10;" d="
						M389.41,380.744c0,0,16.631,64.991,16.98,66.357"/>
					
						<path style="fill:none;stroke:#203827;stroke-width:1.0764;stroke-linecap:round;stroke-linejoin:round;stroke-miterlimit:10;" d="
						M397.862,413.933c0,0-32.459,8.306-33.142,8.481"/>
				</g>
				<g>
					
						<path style="fill:none;stroke:#203827;stroke-width:1.0764;stroke-linecap:round;stroke-linejoin:round;stroke-miterlimit:10;" d="
						M415.357,384.459c0,0-34.196,57.715-34.914,58.928"/>
					
						<path style="fill:none;stroke:#203827;stroke-width:1.0764;stroke-linecap:round;stroke-linejoin:round;stroke-miterlimit:10;" d="
						M427.364,431.38c0,0-57.715-34.196-58.928-34.914"/>
				</g>
				<g>
					
						<path style="fill:none;stroke:#203827;stroke-width:1.0764;stroke-linecap:round;stroke-linejoin:round;stroke-miterlimit:10;" d="
						M425.879,394.173c0,0-54.806,38.687-55.958,39.5"/>
					
						<path style="fill:none;stroke:#203827;stroke-width:1.0764;stroke-linecap:round;stroke-linejoin:round;stroke-miterlimit:10;" d="
						M417.65,441.902c0,0-38.687-54.806-39.5-55.958"/>
				</g>
				<g>
					
						<path style="fill:none;stroke:#203827;stroke-width:1.0764;stroke-linecap:round;stroke-linejoin:round;stroke-miterlimit:10;" d="
						M431.65,419.741c0,0-66.109-11.398-67.499-11.637"/>
					
						<path style="fill:none;stroke:#203827;stroke-width:1.0764;stroke-linecap:round;stroke-linejoin:round;stroke-miterlimit:10;" d="
						M392.082,447.672c0,0,11.398-66.109,11.637-67.499"/>
				</g>
			</g>
			
				<line style="fill:none;stroke:#D9DF40;stroke-width:2.0642;stroke-linecap:round;stroke-linejoin:round;stroke-miterlimit:10;" x1="441.033" y1="500" x2="415.224" y2="452.525"/>
			<g>
				
					<line style="fill:none;stroke:#F4F6DA;stroke-width:2;stroke-linecap:round;stroke-linejoin:round;stroke-miterlimit:10;" x1="715.601" y1="18.531" x2="715.601" y2="54.363"/>
				
					<line style="fill:none;stroke:#F4F6DA;stroke-width:2;stroke-linecap:round;stroke-linejoin:round;stroke-miterlimit:10;" x1="697.677" y1="36.447" x2="733.524" y2="36.447"/>
				
					<line style="fill:none;stroke:#F4F6DA;stroke-width:2;stroke-linecap:round;stroke-linejoin:round;stroke-miterlimit:10;" x1="702.927" y1="23.778" x2="728.275" y2="49.116"/>
				
					<line style="fill:none;stroke:#F4F6DA;stroke-width:2;stroke-linecap:round;stroke-linejoin:round;stroke-miterlimit:10;" x1="702.927" y1="49.116" x2="728.275" y2="23.778"/>
			</g>
			<g>
				<path style="fill:#FFFFFF;" d="M353.469,79.888c0,0-28.929-30.836-64.616-30.836c-35.686,0-64.616,30.836-64.616,30.836
					s28.929,30.836,64.616,30.836C324.54,110.725,353.469,79.888,353.469,79.888z"/>
				<ellipse style="fill:#D9DF40;" cx="288.854" cy="79.888" rx="20.081" ry="20.073"/>
				
					<ellipse transform="matrix(1 -0.0039 0.0039 1 -0.3099 1.1292)" style="fill:#203827;" cx="288.854" cy="79.888" rx="8.117" ry="8.114"/>
			</g>
			<path style="fill:#FFFFFF;" d="M690.607,281.052c-17.172,0-31.093-13.915-31.093-31.08c0-17.165,13.921-31.08,31.093-31.08
				c2.684,0,5.289,0.34,7.774,0.979c-6.7-5.475-15.259-8.762-24.588-8.762c-21.472,0-38.879,17.4-38.879,38.863
				c0,21.463,17.407,38.863,38.879,38.863c9.329,0,17.888-3.287,24.588-8.762C695.896,280.712,693.292,281.052,690.607,281.052z"/>
			<g>
				<path style="fill:#60A84C;" d="M36.28,275.725c-5.955,0-10.783-4.826-10.783-10.778c0-5.953,4.828-10.778,10.783-10.778
					c5.955,0,10.783,4.826,10.783,10.778C47.062,270.899,42.235,275.725,36.28,275.725z"/>
			</g>
			<path style="fill:#FFFFFF;" d="M25.838,500V307.871c0-6.213,5.057-11.289,11.272-11.313c0.016,0,0.032,0,0.047,0
				c3.014,0,5.848,1.169,7.985,3.297c2.148,2.138,3.331,4.985,3.331,8.016V500H25.838z"/>
			<g>
				<path style="fill:#D9DF40;" d="M539.338,500c0-12.133-9.84-21.965-21.974-21.965c-12.138,0-21.978,9.832-21.978,21.965h-24.55
					c0-25.685,20.833-46.506,46.528-46.506c25.695,0,46.524,20.821,46.524,46.506H539.338z"/>
				<g>
					<path style="fill:#E38821;" d="M517.364,459.006c-22.65,0-41.014,18.353-41.014,40.994h14.992
						c0-14.364,11.651-26.008,26.021-26.008c14.37,0,26.019,11.644,26.019,26.008h14.992
						C558.374,477.359,540.013,459.006,517.364,459.006z"/>
					<path style="fill:#203827;" d="M517.364,480.638c-10.699,0-19.373,8.667-19.373,19.362h7.081
						c0-6.785,5.503-12.284,12.291-12.284c6.786,0,12.289,5.499,12.289,12.284h7.081
						C536.733,489.305,528.06,480.638,517.364,480.638z"/>
					<path style="fill:#203827;" d="M517.363,465.042c-19.315,0-34.975,15.651-34.975,34.958h8.936
						c0-14.375,11.659-26.025,26.04-26.025c14.376,0,26.035,11.649,26.035,26.025h8.936
						C552.335,480.693,536.678,465.042,517.363,465.042z"/>
				</g>
			</g>
			<g>
				<g>
					<path style="fill:#F4F6DA;" d="M496.175,143.067c0,0-21.072,0.406-19.803-22.816
						C476.372,120.251,497.378,118.202,496.175,143.067z"/>
					<path style="fill:#F4F6DA;" d="M456.525,143.067c0,0,21.072,0.406,19.803-22.816
						C476.328,120.251,455.322,118.202,456.525,143.067z"/>
				</g>
				<g>
					<path style="fill:#F4F6DA;" d="M496.175,118.241c0,0-21.072,0.406-19.803-22.816
						C476.372,95.424,497.378,93.376,496.175,118.241z"/>
					<path style="fill:#F4F6DA;" d="M456.525,118.241c0,0,21.072,0.406,19.803-22.816
						C476.328,95.424,455.322,93.376,456.525,118.241z"/>
				</g>
				<g>
					<path style="fill:#F4F6DA;" d="M496.175,92.108c0,0-21.072,0.406-19.803-22.816C476.372,69.292,497.378,67.243,496.175,92.108z
						"/>
					<path style="fill:#F4F6DA;" d="M456.525,92.108c0,0,21.072,0.406,19.803-22.816C476.328,69.292,455.322,67.243,456.525,92.108z
						"/>
				</g>
				<g>
					<path style="fill:#203827;" d="M496.175,65.976c0,0-21.072,0.405-19.803-22.817C476.372,43.159,497.378,41.11,496.175,65.976z"
						/>
					<path style="fill:#203827;" d="M456.525,65.976c0,0,21.072,0.405,19.803-22.817C476.328,43.159,455.322,41.11,456.525,65.976z"
						/>
				</g>
				<g>
					<path style="fill:#F4F6DA;" d="M496.175,41.149c0,0-21.072,0.405-19.803-22.816C476.372,18.333,497.378,16.284,496.175,41.149z
						"/>
					<path style="fill:#F4F6DA;" d="M456.525,41.149c0,0,21.072,0.405,19.803-22.816C476.328,18.333,455.322,16.284,456.525,41.149z
						"/>
				</g>
				<g>
					<path style="fill:#F4F6DA;" d="M496.175,15.017c0,0-21.072,0.406-19.803-22.816C476.372-7.8,497.378-9.849,496.175,15.017z"/>
					<path style="fill:#F4F6DA;" d="M456.525,15.017c0,0,21.072,0.406,19.803-22.816C476.328-7.8,455.322-9.849,456.525,15.017z"/>
				</g>
				<g>
					<path style="fill:#F4F6DA;" d="M496.175-11.483c0,0-21.072,0.406-19.803-22.816C476.372-34.3,497.378-36.348,496.175-11.483z"
						/>
					<path style="fill:#F4F6DA;" d="M456.525-11.483c0,0,21.072,0.406,19.803-22.816C476.328-34.3,455.322-36.348,456.525-11.483z"
						/>
				</g>
			</g>
			<g>
				<g>
					<path style="fill:#F4F6DA;" d="M435.049,118.241c0,0-21.073,0.406-19.803-22.816
						C415.246,95.424,436.253,93.376,435.049,118.241z"/>
					<path style="fill:#F4F6DA;" d="M395.399,118.241c0,0,21.072,0.406,19.803-22.816
						C415.202,95.424,394.196,93.376,395.399,118.241z"/>
				</g>
				<g>
					<path style="fill:#F4F6DA;" d="M435.049,92.108c0,0-21.073,0.406-19.803-22.816C415.246,69.292,436.253,67.243,435.049,92.108z
						"/>
					<path style="fill:#F4F6DA;" d="M395.399,92.108c0,0,21.072,0.406,19.803-22.816C415.202,69.292,394.196,67.243,395.399,92.108z
						"/>
				</g>
				<g>
					<path style="fill:#F4F6DA;" d="M435.049,65.976c0,0-21.073,0.405-19.803-22.817C415.246,43.159,436.253,41.11,435.049,65.976z"
						/>
					<path style="fill:#F4F6DA;" d="M395.399,65.976c0,0,21.072,0.405,19.803-22.817C415.202,43.159,394.196,41.11,395.399,65.976z"
						/>
				</g>
				<g>
					<path style="fill:#F4F6DA;" d="M435.049,41.149c0,0-21.073,0.405-19.803-22.816C415.246,18.333,436.253,16.284,435.049,41.149z
						"/>
					<path style="fill:#F4F6DA;" d="M395.399,41.149c0,0,21.072,0.405,19.803-22.816C415.202,18.333,394.196,16.284,395.399,41.149z
						"/>
				</g>
				<g>
					<path style="fill:#F4F6DA;" d="M435.049,15.017c0,0-21.073,0.406-19.803-22.816C415.246-7.8,436.253-9.849,435.049,15.017z"/>
					<path style="fill:#F4F6DA;" d="M395.399,15.017c0,0,21.072,0.406,19.803-22.816C415.202-7.8,394.196-9.849,395.399,15.017z"/>
				</g>
				<g>
					<path style="fill:#F4F6DA;" d="M435.049-11.483c0,0-21.073,0.406-19.803-22.816C415.246-34.3,436.253-36.348,435.049-11.483z"
						/>
					<path style="fill:#F4F6DA;" d="M395.399-11.483c0,0,21.072,0.406,19.803-22.816C415.202-34.3,394.196-36.348,395.399-11.483z"
						/>
				</g>
			</g>
			<path style="fill:#F4F6DA;" d="M328.382,399.08C328.382,399.08,328.382,399.08,328.382,399.08c0-0.389-0.314-0.705-0.702-0.705
				h-33.454c-0.014-1.653-0.273-3.248-0.747-4.748l31.139-11.869c0.28-0.106,0.448-0.373,0.45-0.656c0-0.085-0.01-0.171-0.042-0.254
				c-0.081-0.212-0.257-0.351-0.459-0.412c-0.076-0.023-0.153-0.035-0.235-0.031c-0.072,0.004-0.144,0.009-0.215,0.036
				c-0.734,0.28-14.405,5.491-31.121,11.862c-0.753-1.816-1.828-3.464-3.152-4.877c12.647-12.647,22.99-22.99,23.546-23.546
				c0.275-0.275,0.275-0.721,0-0.996l0,0c0,0,0,0,0,0c-0.027-0.027-0.062-0.039-0.092-0.061c-0.221-0.16-0.503-0.178-0.738-0.05
				c-0.058,0.032-0.117,0.061-0.167,0.111c-0.419,0.419-6.407,6.407-14.749,14.749c-0.801,0.801-1.62,1.62-2.461,2.461
				c-0.48,0.48-0.967,0.967-1.459,1.459c-1.576,1.576-3.212,3.212-4.886,4.886c-1.194-1.072-2.548-1.967-4.021-2.649l13.588-30.326
				c0.034-0.075,0.055-0.122,0.064-0.142l0.011-0.025c0.005-0.011,0.003-0.023,0.008-0.035c0.135-0.347-0.019-0.742-0.363-0.896
				c-0.029-0.013-0.06-0.011-0.089-0.02c-0.332-0.101-0.692,0.047-0.839,0.372c-0.001,0.001-0.002,0.002-0.003,0.003v0c0,0,0,0,0,0
				l-11.596,25.881c-0.316,0.705-0.635,1.417-0.957,2.136l-0.472,1.054c-0.217,0.484-0.434,0.969-0.653,1.458
				c-1.719-0.62-3.573-0.96-5.506-0.96c-0.007,0-0.014,0.001-0.02,0.001c-0.03,0-0.059,0.002-0.089,0.002v-33.698
				c0-0.389-0.315-0.704-0.704-0.704c-0.389,0-0.704,0.316-0.704,0.704v33.768c-1.576,0.147-3.086,0.52-4.499,1.085l-12.118-31.794
				c-0.139-0.364-0.545-0.546-0.909-0.408c-0.364,0.138-0.546,0.546-0.408,0.909l12.148,31.873
				c-1.628,0.823-3.098,1.911-4.353,3.209c-13.36-13.36-24.355-24.355-24.355-24.355l-0.997,0.996c0,0,11.028,11.028,24.414,24.414
				c-0.913,1.125-1.678,2.374-2.267,3.719l-31.734-14.219l-0.576,1.286l31.802,14.249c-0.535,1.587-0.833,3.282-0.847,5.046h-35.08
				c-0.389,0-0.704,0.316-0.704,0.704c0,0.389,0.315,0.704,0.704,0.704h35.131c0.11,1.415,0.4,2.779,0.85,4.069l-32.921,12.548
				c-0.364,0.138-0.546,0.546-0.407,0.909c0.107,0.281,0.375,0.454,0.658,0.454c0.084,0,0.169-0.014,0.251-0.046l32.942-12.556
				c0.691,1.535,1.611,2.944,2.721,4.18c-13.621,13.621-24.936,24.936-24.936,24.936l0.997,0.996c0,0,11.31-11.31,24.926-24.926
				c1.009,0.946,2.137,1.767,3.362,2.431c-7.655,17.085-14.042,31.34-14.375,32.082c-0.159,0.355,0,0.772,0.355,0.931
				c0.094,0.042,0.191,0.061,0.288,0.061c0.269,0,0.526-0.155,0.643-0.417c0.332-0.741,6.71-14.975,14.357-32.043
				c1.537,0.668,3.197,1.104,4.938,1.266v34.902c0,0.389,0.315,0.704,0.704,0.704c0.389,0,0.704-0.316,0.704-0.704v-34.832
				c0.037,0,0.073,0.003,0.11,0.003l0,0l0,0c1.449,0,2.852-0.193,4.189-0.549l12,31.483c0.032,0.084,0.058,0.153,0.086,0.225
				l0.232,0.61l0,0c0,0,0,0,0,0c0.107,0.281,0.375,0.454,0.658,0.454c0.084,0,0.168-0.015,0.251-0.047
				c0.273-0.104,0.444-0.359,0.453-0.633c0.003-0.092-0.011-0.185-0.046-0.276l-12.288-32.238c0.398-0.145,0.788-0.308,1.171-0.482
				c0.231-0.105,0.458-0.215,0.683-0.33c1.008-0.517,1.956-1.134,2.827-1.842c4.112,4.112,7.995,7.995,11.398,11.398
				c0.772,0.771,1.516,1.516,2.235,2.236c0.406,0.405,0.802,0.802,1.19,1.19c5.421,5.421,9.022,9.022,9.343,9.343
				c0.138,0.138,0.318,0.207,0.498,0.207c0.18,0,0.361-0.069,0.498-0.207c0,0,0,0,0,0c0,0,0,0,0,0
				c0.207-0.206,0.258-0.509,0.155-0.763c-0.003-0.007-0.01-0.012-0.013-0.019c-0.034-0.077-0.079-0.151-0.142-0.214
				c-0.547-0.547-10.566-10.566-22.934-22.933c-0.389-0.389-0.781-0.782-1.174-1.175c1.105-1.069,2.057-2.293,2.824-3.637
				l30.871,13.832c0.087,0.039,0.177,0.054,0.266,0.057c0.007,0,0.014,0.005,0.022,0.005c0.087,0,0.17-0.021,0.25-0.052
				c0.168-0.064,0.314-0.187,0.393-0.364c0.04-0.089,0.06-0.182,0.062-0.273c0.001-0.041-0.015-0.079-0.021-0.119
				c-0.008-0.049-0.008-0.101-0.026-0.147c-0.024-0.063-0.065-0.117-0.106-0.171c-0.014-0.018-0.02-0.041-0.036-0.058
				c-0.062-0.067-0.139-0.123-0.228-0.163l-30.802-13.801c0.779-1.694,1.273-3.545,1.424-5.493h33.503h0.002
				c0.352,0,0.631-0.264,0.682-0.603C328.366,399.147,328.382,399.116,328.382,399.08C328.382,399.08,328.382,399.08,328.382,399.08
				z"/>
		</g>
	</g>
</g>
</svg>
